<?xml version="1.0" standalone="no"?>
<svg viewBox="0 0 200 200" xmlns="http://www.w3.org/2000/svg">
  <path fill="#FFD900" d="M40,-73.1C50.7,-63.1,57.3,-50,60.5,-37.3C63.6,-24.6,63.1,-12.3,65.6,1.4C68.1,15.2,73.4,30.3,69.3,41.2C65.1,52.1,51.4,58.6,38.2,64.9C25.1,71.2,12.6,77.3,2.5,72.9C-7.5,68.5,-15,53.7,-22.1,43.9C-29.3,34.2,-36.2,29.5,-43.3,23.1C-50.4,16.6,-57.7,8.3,-62.1,-2.6C-66.6,-13.4,-68.1,-26.8,-62,-35C-55.9,-43.2,-42.1,-46.1,-30.5,-55.6C-18.9,-65,-9.4,-81,2.6,-85.5C14.7,-90,29.3,-83.1,40,-73.1Z" transform="translate(100 100)" />
</svg>
